<svg xmlns="http://www.w3.org/2000/svg" width="16" height="16" viewBox="0 0 16 16"><path d="M7,7 8,7 8,8 7,8 M9,7 10,7 10,8 9,8 M6,6 7,6 7,7 6,7 M6,5 7,5 7,6 6,6 M10,6 11,6 11,7 10,7 M11,6 12,6 12,7 11,7 M6,4 7,4 7,5 6,5 M8,8 9,8 9,9 8,9 M8,9 9,9 9,10 8,10 M8,10 9,10 9,11 8,11 M7,11 8,11 8,12 7,12 M5,6 6,6 6,7 5,7 M7,3 8,3 8,4 7,4 M9,5 10,5 10,6 9,6 M12,5 13,5 13,6 12,6 M6,11 7,11 7,12 6,12 " fill="#000000"></path><path d="M6,7 7,7 7,8 6,8 M7,8 8,8 8,9 7,9 M9,8 10,8 10,9 9,9 M10,7 11,7 11,8 10,8 M11,7 12,7 12,8 11,8 M8,11 9,11 9,12 8,12 M7,12 8,12 8,13 7,13 M12,6 13,6 13,7 12,7 M9,6 10,6 10,7 9,7 M7,4 8,4 8,5 7,5 M5,7 6,7 6,8 5,8 M6,12 7,12 7,13 6,13 " fill="#4c4c4c"></path></svg>